<svg width="72" height="96" viewBox="0 0 72 96" fill="none" xmlns="http://www.w3.org/2000/svg">
<g id="Logo">
<rect id="Rectangle 31" x="20.8" y="20.2667" width="30.4" height="55.4667" rx="15.2" fill="black" stroke="black" stroke-width="12.8"/>
<path id="c" d="M43.0805 50.1947C43.4482 50.1947 43.632 50.5121 43.632 51.147C43.632 51.4644 43.5475 51.8414 43.3786 52.2778C43.2097 52.7044 42.9314 53.1706 42.5439 53.6765C42.1662 54.1725 41.7091 54.6337 41.1725 55.0603C40.6458 55.4769 39.975 55.829 39.1601 56.1167C38.3552 56.3945 37.4857 56.5333 36.5515 56.5333C34.2063 56.5333 32.2536 55.7596 30.6934 54.2122C29.1431 52.6548 28.368 50.6957 28.368 48.3348C28.368 46.7873 28.7456 45.3341 29.5009 43.9751C30.2661 42.6161 31.3045 41.525 32.6163 40.7017C33.938 39.8783 35.369 39.4667 36.9093 39.4667C38.0422 39.4667 39.1055 39.6998 40.0992 40.166C41.093 40.6223 41.893 41.2621 42.4991 42.0854C43.1153 42.9088 43.4233 43.8164 43.4233 44.8084C43.4233 45.6615 43.2295 46.4005 42.842 47.0254C42.4644 47.6404 41.9973 48.0918 41.4408 48.3794C40.8843 48.6572 40.293 48.7961 39.667 48.7961C39.3788 48.7961 39.1154 48.677 38.8769 48.4389C38.6484 48.191 38.5341 47.9132 38.5341 47.6057C38.5341 47.4569 38.5987 47.1792 38.7279 46.7725C38.867 46.3658 38.9365 46.0136 38.9365 45.716C38.9365 45.2101 38.6086 44.9572 37.9527 44.9572C37.1577 44.9572 36.4373 45.3192 35.7913 46.0434C35.1553 46.7675 34.8373 47.695 34.8373 48.8258C34.8373 49.8277 35.1752 50.6312 35.8509 51.2363C36.5267 51.8414 37.3615 52.1439 38.3552 52.1439C38.9216 52.1439 39.4583 52.0447 39.9651 51.8463C40.4719 51.638 40.8694 51.4148 41.1576 51.1768C41.4458 50.9288 41.7638 50.7056 42.1116 50.5072C42.4594 50.2989 42.7824 50.1947 43.0805 50.1947Z" fill="white"/>
</g>
</svg>
